<svg xmlns="http://www.w3.org/2000/svg" viewBox="0 0 32 32" width="32" height="32">
  <!-- 背景圆形 -->
  <circle cx="16" cy="16" r="15" fill="#1976D2" stroke="#fff" stroke-width="1"/>
  
  <!-- 图像框架 -->
  <rect x="7" y="8" width="18" height="12" fill="none" stroke="#fff" stroke-width="1.5" rx="1"/>
  
  <!-- 山峦轮廓 -->
  <path d="M8 17 L12 13 L16 15 L20 11 L24 14 L24 19 L8 19 Z" fill="#4FC3F7"/>
  
  <!-- 太阳 -->
  <circle cx="21" cy="11" r="2" fill="#FFD54F"/>
  
  <!-- 图片底部 -->
  <rect x="8" y="18" width="16" height="1" fill="#E3F2FD"/>
  
  <!-- 处理器图标 (齿轮) -->
  <g transform="translate(16,24)">
    <circle cx="0" cy="0" r="3" fill="#FF5722"/>
    <circle cx="0" cy="0" r="1.5" fill="#fff"/>
    <path d="M-1.5,-2.5 L1.5,-2.5 L2.5,-1.5 L1.5,-0.5 L-1.5,-0.5 Z" fill="#FF5722"/>
    <path d="M-2.5,-1.5 L-2.5,1.5 L-1.5,2.5 L-0.5,1.5 L-0.5,-1.5 Z" fill="#FF5722"/>
    <path d="M-1.5,2.5 L1.5,2.5 L2.5,1.5 L1.5,0.5 L-1.5,0.5 Z" fill="#FF5722"/>
    <path d="M2.5,-1.5 L2.5,1.5 L1.5,2.5 L0.5,1.5 L0.5,-1.5 Z" fill="#FF5722"/>
  </g>
</svg>